<svg width="132" height="35" viewBox="0 0 132 35" fill="none" xmlns="http://www.w3.org/2000/svg">
<path d="M7.992 0.735999V34H0.12V0.735999H7.992ZM27.096 0.735999L16.488 15.664L27.96 34H18.84L8.232 16.24L18.792 0.735999H27.096ZM50.1851 26.608C50.1851 27.568 50.3131 28.272 50.5691 28.72C50.8571 29.168 51.3051 29.504 51.9131 29.728L50.3291 34.672C48.7611 34.544 47.4811 34.208 46.4891 33.664C45.4971 33.088 44.7291 32.192 44.1851 30.976C42.5211 33.536 39.9611 34.816 36.5051 34.816C33.9771 34.816 31.9611 34.08 30.4571 32.608C28.9531 31.136 28.2011 29.216 28.2011 26.848C28.2011 24.064 29.2251 21.936 31.2731 20.464C33.3211 18.992 36.2811 18.256 40.1531 18.256H42.7451V17.152C42.7451 15.648 42.4251 14.624 41.7851 14.08C41.1451 13.504 40.0251 13.216 38.4251 13.216C37.5931 13.216 36.5851 13.344 35.4011 13.6C34.2171 13.824 33.0011 14.144 31.7531 14.56L30.0251 9.568C31.6251 8.96 33.2571 8.496 34.9211 8.176C36.6171 7.856 38.1851 7.696 39.6251 7.696C43.2731 7.696 45.9451 8.448 47.6411 9.952C49.3371 11.456 50.1851 13.712 50.1851 16.72V26.608ZM38.7131 29.392C40.4411 29.392 41.7851 28.576 42.7451 26.944V22.432H40.8731C39.1451 22.432 37.8491 22.736 36.9851 23.344C36.1531 23.952 35.7371 24.896 35.7371 26.176C35.7371 27.2 35.9931 28 36.5051 28.576C37.0491 29.12 37.7851 29.392 38.7131 29.392ZM77.73 34H71.154L70.818 30.784C68.962 33.472 66.386 34.816 63.09 34.816C60.754 34.816 58.978 34.112 57.762 32.704C56.578 31.296 55.986 29.328 55.986 26.8V8.512H63.57V25.84C63.57 27.088 63.762 27.968 64.146 28.48C64.562 28.96 65.186 29.2 66.018 29.2C67.618 29.2 68.994 28.208 70.146 26.224V8.512H77.73V34ZM103.951 26.608C103.951 27.568 104.079 28.272 104.335 28.72C104.623 29.168 105.071 29.504 105.679 29.728L104.095 34.672C102.527 34.544 101.247 34.208 100.255 33.664C99.2628 33.088 98.4948 32.192 97.9508 30.976C96.2868 33.536 93.7268 34.816 90.2708 34.816C87.7428 34.816 85.7268 34.08 84.2228 32.608C82.7188 31.136 81.9668 29.216 81.9668 26.848C81.9668 24.064 82.9908 21.936 85.0388 20.464C87.0868 18.992 90.0468 18.256 93.9188 18.256H96.5108V17.152C96.5108 15.648 96.1908 14.624 95.5508 14.08C94.9108 13.504 93.7908 13.216 92.1908 13.216C91.3588 13.216 90.3508 13.344 89.1668 13.6C87.9828 13.824 86.7668 14.144 85.5188 14.56L83.7908 9.568C85.3908 8.96 87.0228 8.496 88.6868 8.176C90.3828 7.856 91.9508 7.696 93.3907 7.696C97.0388 7.696 99.7108 8.448 101.407 9.952C103.103 11.456 103.951 13.712 103.951 16.72V26.608ZM92.4788 29.392C94.2068 29.392 95.5508 28.576 96.5108 26.944V22.432H94.6388C92.9108 22.432 91.6148 22.736 90.7508 23.344C89.9188 23.952 89.5028 24.896 89.5028 26.176C89.5028 27.2 89.7588 28 90.2708 28.576C90.8148 29.12 91.5508 29.392 92.4788 29.392ZM124.92 7.696C127.128 7.696 128.856 8.368 130.104 9.712C131.352 11.056 131.976 12.944 131.976 15.376V34H124.392V16.672C124.392 15.392 124.184 14.512 123.768 14.032C123.384 13.52 122.792 13.264 121.992 13.264C120.456 13.264 118.984 14.368 117.576 16.576V34H109.992V8.512H116.616L117.144 11.536C118.232 10.256 119.4 9.296 120.648 8.656C121.928 8.016 123.352 7.696 124.92 7.696Z" fill="black"/>
</svg>
